{
    "asset" : {
        "generator" : "Khronos glTF Blender I/O v1.6.16",
        "version" : "2.0"
    },
    "scene" : 0,
    "scenes" : [
        {
            "name" : "Scene",
            "nodes" : [
                0
            ]
        }
    ],
    "nodes" : [
        {
            "mesh" : 0,
            "name" : "Boat"
        }
    ],
    "materials" : [
        {
            "doubleSided" : true,
            "name" : "ShipDiffuse",
            "pbrMetallicRoughness" : {
                "baseColorTexture" : {
                    "index" : 0
                },
                "metallicFactor" : 0,
                "roughnessFactor" : 0.5
            }
        }
    ],
    "meshes" : [
        {
            "name" : "Cube.055",
            "primitives" : [
                {
                    "attributes" : {
                        "POSITION" : 0,
                        "NORMAL" : 1,
                        "TANGENT" : 2,
                        "TEXCOORD_0" : 3
                    },
                    "indices" : 4,
                    "material" : 0
                }
            ]
        }
    ],
    "textures" : [
        {
            "sampler" : 0,
            "source" : 0
        }
    ],
    "images" : [
        {
            "bufferView" : 5,
            "mimeType" : "image/png",
            "name" : "Ship Colorscheme"
        }
    ],
    "accessors" : [
        {
            "bufferView" : 0,
            "componentType" : 5126,
            "count" : 13716,
            "max" : [
                3.3362960815429688,
                18.599849700927734,
                12.473380088806152
            ],
            "min" : [
                -3.336297035217285,
                -2.0177290439605713,
                -12.09157943725586
            ],
            "type" : "VEC3"
        },
        {
            "bufferView" : 1,
            "componentType" : 5126,
            "count" : 13716,
            "type" : "VEC3"
        },
        {
            "bufferView" : 2,
            "componentType" : 5126,
            "count" : 13716,
            "type" : "VEC4"
        },
        {
            "bufferView" : 3,
            "componentType" : 5126,
            "count" : 13716,
            "type" : "VEC2"
        },
        {
            "bufferView" : 4,
            "componentType" : 5123,
            "count" : 14028,
            "type" : "SCALAR"
        }
    ],
    "bufferViews" : [
        {
            "buffer" : 0,
            "byteLength" : 164592,
            "byteOffset" : 0
        },
        {
            "buffer" : 0,
            "byteLength" : 164592,
            "byteOffset" : 164592
        },
        {
            "buffer" : 0,
            "byteLength" : 219456,
            "byteOffset" : 329184
        },
        {
            "buffer" : 0,
            "byteLength" : 109728,
            "byteOffset" : 548640
        },
        {
            "buffer" : 0,
            "byteLength" : 28056,
            "byteOffset" : 658368
        },
        {
            "buffer" : 0,
            "byteLength" : 209,
            "byteOffset" : 686424
        }
    ],
    "samplers" : [
        {
            "magFilter" : 9729,
            "minFilter" : 9987
        }
    ],
    "buffers" : [
        {
            "byteLength" : 686636,
            "uri" : "data:application/octet-stream;base64,"
        }
    ]
}
