{
    "asset" : {
        "generator" : "Khronos glTF Blender I/O v1.6.16",
        "version" : "2.0"
    },
    "scene" : 0,
    "scenes" : [
        {
            "name" : "Scene",
            "nodes" : [
                0
            ]
        }
    ],
    "nodes" : [
        {
            "mesh" : 0,
            "name" : "Canal_Stairs"
        }
    ],
    "materials" : [
        {
            "doubleSided" : true,
            "name" : "HouseDiffuseOne",
            "pbrMetallicRoughness" : {
                "baseColorTexture" : {
                    "index" : 0
                },
                "metallicFactor" : 0,
                "roughnessFactor" : 0.5
            }
        },
        {
            "doubleSided" : true,
            "name" : "BricksDiffuse",
            "pbrMetallicRoughness" : {
                "baseColorTexture" : {
                    "index" : 1
                },
                "metallicFactor" : 0,
                "roughnessFactor" : 0.5
            }
        }
    ],
    "meshes" : [
        {
            "name" : "Cube.041",
            "primitives" : [
                {
                    "attributes" : {
                        "POSITION" : 0,
                        "NORMAL" : 1,
                        "TANGENT" : 2,
                        "TEXCOORD_0" : 3
                    },
                    "indices" : 4,
                    "material" : 0
                },
                {
                    "attributes" : {
                        "POSITION" : 5,
                        "NORMAL" : 6,
                        "TANGENT" : 7,
                        "TEXCOORD_0" : 8
                    },
                    "indices" : 9,
                    "material" : 1
                }
            ]
        }
    ],
    "textures" : [
        {
            "sampler" : 0,
            "source" : 0
        },
        {
            "sampler" : 0,
            "source" : 1
        }
    ],
    "images" : [
        {
            "bufferView" : 5,
            "mimeType" : "image/png",
            "name" : "Houses Colorscheme 2"
        },
        {
            "bufferView" : 11,
            "mimeType" : "image/png",
            "name" : "GroundTiles2Color"
        }
    ],
    "accessors" : [
        {
            "bufferView" : 0,
            "componentType" : 5126,
            "count" : 2326,
            "max" : [
                3.9910199642181396,
                1.0791950225830078,
                5.529659748077393
            ],
            "min" : [
                -1.7453659772872925,
                -8.530961990356445,
                -5.394404888153076
            ],
            "type" : "VEC3"
        },
        {
            "bufferView" : 1,
            "componentType" : 5126,
            "count" : 2326,
            "type" : "VEC3"
        },
        {
            "bufferView" : 2,
            "componentType" : 5126,
            "count" : 2326,
            "type" : "VEC4"
        },
        {
            "bufferView" : 3,
            "componentType" : 5126,
            "count" : 2326,
            "type" : "VEC2"
        },
        {
            "bufferView" : 4,
            "componentType" : 5123,
            "count" : 2934,
            "type" : "SCALAR"
        },
        {
            "bufferView" : 6,
            "componentType" : 5126,
            "count" : 28,
            "max" : [
                3.7294249534606934,
                0.1269170045852661,
                5.394404888153076
            ],
            "min" : [
                -1.7453659772872925,
                -3.3301680088043213,
                -5.394404888153076
            ],
            "type" : "VEC3"
        },
        {
            "bufferView" : 7,
            "componentType" : 5126,
            "count" : 28,
            "type" : "VEC3"
        },
        {
            "bufferView" : 8,
            "componentType" : 5126,
            "count" : 28,
            "type" : "VEC4"
        },
        {
            "bufferView" : 9,
            "componentType" : 5126,
            "count" : 28,
            "type" : "VEC2"
        },
        {
            "bufferView" : 10,
            "componentType" : 5123,
            "count" : 30,
            "type" : "SCALAR"
        }
    ],
    "bufferViews" : [
        {
            "buffer" : 0,
            "byteLength" : 27912,
            "byteOffset" : 0
        },
        {
            "buffer" : 0,
            "byteLength" : 27912,
            "byteOffset" : 27912
        },
        {
            "buffer" : 0,
            "byteLength" : 37216,
            "byteOffset" : 55824
        },
        {
            "buffer" : 0,
            "byteLength" : 18608,
            "byteOffset" : 93040
        },
        {
            "buffer" : 0,
            "byteLength" : 5868,
            "byteOffset" : 111648
        },
        {
            "buffer" : 0,
            "byteLength" : 183,
            "byteOffset" : 117516
        },
        {
            "buffer" : 0,
            "byteLength" : 336,
            "byteOffset" : 117700
        },
        {
            "buffer" : 0,
            "byteLength" : 336,
            "byteOffset" : 118036
        },
        {
            "buffer" : 0,
            "byteLength" : 448,
            "byteOffset" : 118372
        },
        {
            "buffer" : 0,
            "byteLength" : 224,
            "byteOffset" : 118820
        },
        {
            "buffer" : 0,
            "byteLength" : 60,
            "byteOffset" : 119044
        },
        {
            "buffer" : 0,
            "byteLength" : 610741,
            "byteOffset" : 119104
        }
    ],
    "samplers" : [
        {
            "magFilter" : 9729,
            "minFilter" : 9987
        }
    ],
    "buffers" : [
        {
            "byteLength" : 729848,
            "uri" : "data:application/octet-stream;base64,"
        }
    ]
}
