{
    "asset" : {
        "generator" : "Khronos glTF Blender I/O v1.6.16",
        "version" : "2.0"
    },
    "scene" : 0,
    "scenes" : [
        {
            "name" : "Scene",
            "nodes" : [
                0
            ]
        }
    ],
    "nodes" : [
        {
            "mesh" : 0,
            "name" : "Chair"
        }
    ],
    "materials" : [
        {
            "doubleSided" : true,
            "name" : "ShipDiffuse",
            "pbrMetallicRoughness" : {
                "baseColorTexture" : {
                    "index" : 0
                },
                "metallicFactor" : 0,
                "roughnessFactor" : 0.5
            }
        }
    ],
    "meshes" : [
        {
            "name" : "Cube.381",
            "primitives" : [
                {
                    "attributes" : {
                        "POSITION" : 0,
                        "NORMAL" : 1,
                        "TANGENT" : 2,
                        "TEXCOORD_0" : 3
                    },
                    "indices" : 4,
                    "material" : 0
                }
            ]
        }
    ],
    "textures" : [
        {
            "sampler" : 0,
            "source" : 0
        }
    ],
    "images" : [
        {
            "bufferView" : 5,
            "mimeType" : "image/png",
            "name" : "Ship Colorscheme"
        }
    ],
    "accessors" : [
        {
            "bufferView" : 0,
            "componentType" : 5126,
            "count" : 176,
            "max" : [
                0.24946030974388123,
                1.3927279710769653,
                0.23675380647182465
            ],
            "min" : [
                -0.24946030974388123,
                0,
                -0.36801740527153015
            ],
            "type" : "VEC3"
        },
        {
            "bufferView" : 1,
            "componentType" : 5126,
            "count" : 176,
            "type" : "VEC3"
        },
        {
            "bufferView" : 2,
            "componentType" : 5126,
            "count" : 176,
            "type" : "VEC4"
        },
        {
            "bufferView" : 3,
            "componentType" : 5126,
            "count" : 176,
            "type" : "VEC2"
        },
        {
            "bufferView" : 4,
            "componentType" : 5123,
            "count" : 276,
            "type" : "SCALAR"
        }
    ],
    "bufferViews" : [
        {
            "buffer" : 0,
            "byteLength" : 2112,
            "byteOffset" : 0
        },
        {
            "buffer" : 0,
            "byteLength" : 2112,
            "byteOffset" : 2112
        },
        {
            "buffer" : 0,
            "byteLength" : 2816,
            "byteOffset" : 4224
        },
        {
            "buffer" : 0,
            "byteLength" : 1408,
            "byteOffset" : 7040
        },
        {
            "buffer" : 0,
            "byteLength" : 552,
            "byteOffset" : 8448
        },
        {
            "buffer" : 0,
            "byteLength" : 209,
            "byteOffset" : 9000
        }
    ],
    "samplers" : [
        {
            "magFilter" : 9729,
            "minFilter" : 9987
        }
    ],
    "buffers" : [
        {
            "byteLength" : 9212,
            "uri" : "data:application/octet-stream;base64,"
        }
    ]
}
