{
    "asset" : {
        "generator" : "Khronos glTF Blender I/O v1.6.16",
        "version" : "2.0"
    },
    "scene" : 0,
    "scenes" : [
        {
            "name" : "Scene",
            "nodes" : [
                0
            ]
        }
    ],
    "nodes" : [
        {
            "mesh" : 0,
            "name" : "Church"
        }
    ],
    "materials" : [
        {
            "doubleSided" : true,
            "name" : "HouseDiffuseOne",
            "pbrMetallicRoughness" : {
                "baseColorTexture" : {
                    "index" : 0
                },
                "metallicFactor" : 0,
                "roughnessFactor" : 0.5
            }
        },
        {
            "doubleSided" : true,
            "name" : "HouseWindow",
            "pbrMetallicRoughness" : {
                "baseColorFactor" : [
                    0.03507860377430916,
                    0.1531316041946411,
                    0.2956908047199249,
                    1
                ],
                "roughnessFactor" : 0.5
            }
        }
    ],
    "meshes" : [
        {
            "name" : "Cube.434",
            "primitives" : [
                {
                    "attributes" : {
                        "POSITION" : 0,
                        "NORMAL" : 1,
                        "TANGENT" : 2,
                        "TEXCOORD_0" : 3
                    },
                    "indices" : 4,
                    "material" : 0
                },
                {
                    "attributes" : {
                        "POSITION" : 5,
                        "NORMAL" : 6,
                        "TANGENT" : 7,
                        "TEXCOORD_0" : 8
                    },
                    "indices" : 9,
                    "material" : 1
                }
            ]
        }
    ],
    "textures" : [
        {
            "sampler" : 0,
            "source" : 0
        }
    ],
    "images" : [
        {
            "bufferView" : 5,
            "mimeType" : "image/png",
            "name" : "Houses Colorscheme 2"
        }
    ],
    "accessors" : [
        {
            "bufferView" : 0,
            "componentType" : 5126,
            "count" : 13275,
            "max" : [
                12.706329345703125,
                32.4598503112793,
                9.184514045715332
            ],
            "min" : [
                -9.038251876831055,
                -0.11834400147199631,
                -9.184514045715332
            ],
            "type" : "VEC3"
        },
        {
            "bufferView" : 1,
            "componentType" : 5126,
            "count" : 13275,
            "type" : "VEC3"
        },
        {
            "bufferView" : 2,
            "componentType" : 5126,
            "count" : 13275,
            "type" : "VEC4"
        },
        {
            "bufferView" : 3,
            "componentType" : 5126,
            "count" : 13275,
            "type" : "VEC2"
        },
        {
            "bufferView" : 4,
            "componentType" : 5123,
            "count" : 19137,
            "type" : "SCALAR"
        },
        {
            "bufferView" : 6,
            "componentType" : 5126,
            "count" : 205,
            "max" : [
                11.275599479675293,
                6.245911121368408,
                8.233182907104492
            ],
            "min" : [
                -8.223538398742676,
                -0.048788659274578094,
                -8.233182907104492
            ],
            "type" : "VEC3"
        },
        {
            "bufferView" : 7,
            "componentType" : 5126,
            "count" : 205,
            "type" : "VEC3"
        },
        {
            "bufferView" : 8,
            "componentType" : 5126,
            "count" : 205,
            "type" : "VEC4"
        },
        {
            "bufferView" : 9,
            "componentType" : 5126,
            "count" : 205,
            "type" : "VEC2"
        },
        {
            "bufferView" : 10,
            "componentType" : 5123,
            "count" : 249,
            "type" : "SCALAR"
        }
    ],
    "bufferViews" : [
        {
            "buffer" : 0,
            "byteLength" : 159300,
            "byteOffset" : 0
        },
        {
            "buffer" : 0,
            "byteLength" : 159300,
            "byteOffset" : 159300
        },
        {
            "buffer" : 0,
            "byteLength" : 212400,
            "byteOffset" : 318600
        },
        {
            "buffer" : 0,
            "byteLength" : 106200,
            "byteOffset" : 531000
        },
        {
            "buffer" : 0,
            "byteLength" : 38274,
            "byteOffset" : 637200
        },
        {
            "buffer" : 0,
            "byteLength" : 183,
            "byteOffset" : 675476
        },
        {
            "buffer" : 0,
            "byteLength" : 2460,
            "byteOffset" : 675660
        },
        {
            "buffer" : 0,
            "byteLength" : 2460,
            "byteOffset" : 678120
        },
        {
            "buffer" : 0,
            "byteLength" : 3280,
            "byteOffset" : 680580
        },
        {
            "buffer" : 0,
            "byteLength" : 1640,
            "byteOffset" : 683860
        },
        {
            "buffer" : 0,
            "byteLength" : 498,
            "byteOffset" : 685500
        }
    ],
    "samplers" : [
        {
            "magFilter" : 9729,
            "minFilter" : 9987
        }
    ],
    "buffers" : [
        {
            "byteLength" : 686000,
            "uri" : "data:application/octet-stream;base64,"
        }
    ]
}
