{
    "asset" : {
        "generator" : "Khronos glTF Blender I/O v1.6.16",
        "version" : "2.0"
    },
    "scene" : 0,
    "scenes" : [
        {
            "name" : "Scene",
            "nodes" : [
                0
            ]
        }
    ],
    "nodes" : [
        {
            "mesh" : 0,
            "name" : "Cube_267"
        }
    ],
    "materials" : [
        {
            "doubleSided" : true,
            "name" : "Rock_Diffuse",
            "pbrMetallicRoughness" : {
                "baseColorTexture" : {
                    "index" : 0
                },
                "metallicFactor" : 0,
                "roughnessFactor" : 0.5
            }
        },
        {
            "doubleSided" : true,
            "name" : "Ground_Diffuse",
            "pbrMetallicRoughness" : {
                "baseColorTexture" : {
                    "index" : 1
                },
                "metallicFactor" : 0,
                "roughnessFactor" : 0.5
            }
        }
    ],
    "meshes" : [
        {
            "name" : "Cube.579",
            "primitives" : [
                {
                    "attributes" : {
                        "POSITION" : 0,
                        "NORMAL" : 1,
                        "TANGENT" : 2,
                        "TEXCOORD_0" : 3
                    },
                    "indices" : 4,
                    "material" : 0
                },
                {
                    "attributes" : {
                        "POSITION" : 5,
                        "NORMAL" : 6,
                        "TANGENT" : 7,
                        "TEXCOORD_0" : 8
                    },
                    "indices" : 9,
                    "material" : 1
                }
            ]
        }
    ],
    "textures" : [
        {
            "sampler" : 0,
            "source" : 0
        },
        {
            "sampler" : 0,
            "source" : 1
        }
    ],
    "images" : [
        {
            "bufferView" : 5,
            "mimeType" : "image/png",
            "name" : "GroundDirtColor"
        },
        {
            "bufferView" : 11,
            "mimeType" : "image/png",
            "name" : "GroundGrassColor"
        }
    ],
    "accessors" : [
        {
            "bufferView" : 0,
            "componentType" : 5126,
            "count" : 99,
            "max" : [
                1.9458240270614624,
                2.3913650512695312,
                5.240705966949463
            ],
            "min" : [
                -0.13875029981136322,
                -0.34107130765914917,
                -5.368659973144531
            ],
            "type" : "VEC3"
        },
        {
            "bufferView" : 1,
            "componentType" : 5126,
            "count" : 99,
            "type" : "VEC3"
        },
        {
            "bufferView" : 2,
            "componentType" : 5126,
            "count" : 99,
            "type" : "VEC4"
        },
        {
            "bufferView" : 3,
            "componentType" : 5126,
            "count" : 99,
            "type" : "VEC2"
        },
        {
            "bufferView" : 4,
            "componentType" : 5123,
            "count" : 99,
            "type" : "SCALAR"
        },
        {
            "bufferView" : 6,
            "componentType" : 5126,
            "count" : 31,
            "max" : [
                1.4406449794769287,
                2.3913650512695312,
                5.560708045959473
            ],
            "min" : [
                -2.4270949363708496,
                -0.32317349314689636,
                -5.873568058013916
            ],
            "type" : "VEC3"
        },
        {
            "bufferView" : 7,
            "componentType" : 5126,
            "count" : 31,
            "type" : "VEC3"
        },
        {
            "bufferView" : 8,
            "componentType" : 5126,
            "count" : 31,
            "type" : "VEC4"
        },
        {
            "bufferView" : 9,
            "componentType" : 5126,
            "count" : 31,
            "type" : "VEC2"
        },
        {
            "bufferView" : 10,
            "componentType" : 5123,
            "count" : 87,
            "type" : "SCALAR"
        }
    ],
    "bufferViews" : [
        {
            "buffer" : 0,
            "byteLength" : 1188,
            "byteOffset" : 0
        },
        {
            "buffer" : 0,
            "byteLength" : 1188,
            "byteOffset" : 1188
        },
        {
            "buffer" : 0,
            "byteLength" : 1584,
            "byteOffset" : 2376
        },
        {
            "buffer" : 0,
            "byteLength" : 792,
            "byteOffset" : 3960
        },
        {
            "buffer" : 0,
            "byteLength" : 198,
            "byteOffset" : 4752
        },
        {
            "buffer" : 0,
            "byteLength" : 20566,
            "byteOffset" : 4952
        },
        {
            "buffer" : 0,
            "byteLength" : 372,
            "byteOffset" : 25520
        },
        {
            "buffer" : 0,
            "byteLength" : 372,
            "byteOffset" : 25892
        },
        {
            "buffer" : 0,
            "byteLength" : 496,
            "byteOffset" : 26264
        },
        {
            "buffer" : 0,
            "byteLength" : 248,
            "byteOffset" : 26760
        },
        {
            "buffer" : 0,
            "byteLength" : 174,
            "byteOffset" : 27008
        },
        {
            "buffer" : 0,
            "byteLength" : 195,
            "byteOffset" : 27184
        }
    ],
    "samplers" : [
        {
            "magFilter" : 9729,
            "minFilter" : 9987
        }
    ],
    "buffers" : [
        {
            "byteLength" : 27380,
            "uri" : "data:application/octet-stream;base64,"
        }
    ]
}
