{
    "asset" : {
        "generator" : "Khronos glTF Blender I/O v1.6.16",
        "version" : "2.0"
    },
    "scene" : 0,
    "scenes" : [
        {
            "name" : "Scene",
            "nodes" : [
                1
            ]
        }
    ],
    "nodes" : [
        {
            "mesh" : 0,
            "name" : "DoorExtension-1-4",
            "translation" : [
                0,
                0,
                -0.04521942138671875
            ]
        },
        {
            "children" : [
                0
            ],
            "name" : "House-1-4",
            "translation" : [
                0,
                0,
                0.04521942138671875
            ]
        }
    ],
    "materials" : [
        {
            "doubleSided" : true,
            "name" : "HouseWindow",
            "pbrMetallicRoughness" : {
                "baseColorFactor" : [
                    0.03507860377430916,
                    0.1531316041946411,
                    0.2956908047199249,
                    1
                ],
                "roughnessFactor" : 0.5
            }
        },
        {
            "doubleSided" : true,
            "name" : "HouseDiffuseOne",
            "pbrMetallicRoughness" : {
                "baseColorTexture" : {
                    "index" : 0
                },
                "metallicFactor" : 0,
                "roughnessFactor" : 0.5
            }
        }
    ],
    "meshes" : [
        {
            "name" : "Cube.016",
            "primitives" : [
                {
                    "attributes" : {
                        "POSITION" : 0,
                        "NORMAL" : 1,
                        "TANGENT" : 2,
                        "TEXCOORD_0" : 3
                    },
                    "indices" : 4,
                    "material" : 0
                },
                {
                    "attributes" : {
                        "POSITION" : 5,
                        "NORMAL" : 6,
                        "TANGENT" : 7,
                        "TEXCOORD_0" : 8
                    },
                    "indices" : 9,
                    "material" : 1
                }
            ]
        }
    ],
    "textures" : [
        {
            "sampler" : 0,
            "source" : 0
        }
    ],
    "images" : [
        {
            "bufferView" : 10,
            "mimeType" : "image/png",
            "name" : "Houses Colorscheme 2"
        }
    ],
    "accessors" : [
        {
            "bufferView" : 0,
            "componentType" : 5126,
            "count" : 26,
            "max" : [
                4.481346130371094,
                2.4889121055603027,
                2.3848040103912354
            ],
            "min" : [
                3.6290481090545654,
                0.8161271214485168,
                -2.274657964706421
            ],
            "type" : "VEC3"
        },
        {
            "bufferView" : 1,
            "componentType" : 5126,
            "count" : 26,
            "type" : "VEC3"
        },
        {
            "bufferView" : 2,
            "componentType" : 5126,
            "count" : 26,
            "type" : "VEC4"
        },
        {
            "bufferView" : 3,
            "componentType" : 5126,
            "count" : 26,
            "type" : "VEC2"
        },
        {
            "bufferView" : 4,
            "componentType" : 5123,
            "count" : 36,
            "type" : "SCALAR"
        },
        {
            "bufferView" : 5,
            "componentType" : 5126,
            "count" : 1382,
            "max" : [
                4.834861755371094,
                4.758033752441406,
                2.8770699501037598
            ],
            "min" : [
                2.6032869815826416,
                -0.007059394847601652,
                -2.8770699501037598
            ],
            "type" : "VEC3"
        },
        {
            "bufferView" : 6,
            "componentType" : 5126,
            "count" : 1382,
            "type" : "VEC3"
        },
        {
            "bufferView" : 7,
            "componentType" : 5126,
            "count" : 1382,
            "type" : "VEC4"
        },
        {
            "bufferView" : 8,
            "componentType" : 5126,
            "count" : 1382,
            "type" : "VEC2"
        },
        {
            "bufferView" : 9,
            "componentType" : 5123,
            "count" : 1806,
            "type" : "SCALAR"
        }
    ],
    "bufferViews" : [
        {
            "buffer" : 0,
            "byteLength" : 312,
            "byteOffset" : 0
        },
        {
            "buffer" : 0,
            "byteLength" : 312,
            "byteOffset" : 312
        },
        {
            "buffer" : 0,
            "byteLength" : 416,
            "byteOffset" : 624
        },
        {
            "buffer" : 0,
            "byteLength" : 208,
            "byteOffset" : 1040
        },
        {
            "buffer" : 0,
            "byteLength" : 72,
            "byteOffset" : 1248
        },
        {
            "buffer" : 0,
            "byteLength" : 16584,
            "byteOffset" : 1320
        },
        {
            "buffer" : 0,
            "byteLength" : 16584,
            "byteOffset" : 17904
        },
        {
            "buffer" : 0,
            "byteLength" : 22112,
            "byteOffset" : 34488
        },
        {
            "buffer" : 0,
            "byteLength" : 11056,
            "byteOffset" : 56600
        },
        {
            "buffer" : 0,
            "byteLength" : 3612,
            "byteOffset" : 67656
        },
        {
            "buffer" : 0,
            "byteLength" : 183,
            "byteOffset" : 71268
        }
    ],
    "samplers" : [
        {
            "magFilter" : 9729,
            "minFilter" : 9987
        }
    ],
    "buffers" : [
        {
            "byteLength" : 71452,
            "uri" : "data:application/octet-stream;base64,"
        }
    ]
}
