{
    "asset" : {
        "generator" : "Khronos glTF Blender I/O v1.6.16",
        "version" : "2.0"
    },
    "scene" : 0,
    "scenes" : [
        {
            "name" : "Scene",
            "nodes" : [
                1
            ]
        }
    ],
    "nodes" : [
        {
            "mesh" : 0,
            "name" : "FrontExtension-1-4",
            "translation" : [
                3.3835930824279785,
                6.937489032745361,
                0.03117085061967373
            ]
        },
        {
            "children" : [
                0
            ],
            "name" : "House-1-4",
            "translation" : [
                -3.3835930824279785,
                -6.937489032745361,
                -0.03117084503173828
            ]
        }
    ],
    "materials" : [
        {
            "doubleSided" : true,
            "name" : "HouseWindow",
            "pbrMetallicRoughness" : {
                "baseColorFactor" : [
                    0.03507860377430916,
                    0.1531316041946411,
                    0.2956908047199249,
                    1
                ],
                "roughnessFactor" : 0.5
            }
        },
        {
            "doubleSided" : true,
            "name" : "HouseDiffuseOne",
            "pbrMetallicRoughness" : {
                "baseColorTexture" : {
                    "index" : 0
                },
                "metallicFactor" : 0,
                "roughnessFactor" : 0.5
            }
        }
    ],
    "meshes" : [
        {
            "name" : "Cube.019",
            "primitives" : [
                {
                    "attributes" : {
                        "POSITION" : 0,
                        "NORMAL" : 1,
                        "TANGENT" : 2,
                        "TEXCOORD_0" : 3
                    },
                    "indices" : 4,
                    "material" : 0
                },
                {
                    "attributes" : {
                        "POSITION" : 5,
                        "NORMAL" : 6,
                        "TANGENT" : 7,
                        "TEXCOORD_0" : 8
                    },
                    "indices" : 9,
                    "material" : 1
                }
            ]
        }
    ],
    "textures" : [
        {
            "sampler" : 0,
            "source" : 0
        }
    ],
    "images" : [
        {
            "bufferView" : 10,
            "mimeType" : "image/png",
            "name" : "Houses Colorscheme 2"
        }
    ],
    "accessors" : [
        {
            "bufferView" : 0,
            "componentType" : 5126,
            "count" : 14,
            "max" : [
                0.5531256794929504,
                2.1078920364379883,
                0.4616653025150299
            ],
            "min" : [
                0.5068091154098511,
                -2.2313880920410156,
                -0.49832889437675476
            ],
            "type" : "VEC3"
        },
        {
            "bufferView" : 1,
            "componentType" : 5126,
            "count" : 14,
            "type" : "VEC3"
        },
        {
            "bufferView" : 2,
            "componentType" : 5126,
            "count" : 14,
            "type" : "VEC4"
        },
        {
            "bufferView" : 3,
            "componentType" : 5126,
            "count" : 14,
            "type" : "VEC2"
        },
        {
            "bufferView" : 4,
            "componentType" : 5123,
            "count" : 18,
            "type" : "SCALAR"
        },
        {
            "bufferView" : 5,
            "componentType" : 5126,
            "count" : 545,
            "max" : [
                0.8154503107070923,
                6.121098041534424,
                1.3543130159378052
            ],
            "min" : [
                -1.5591360330581665,
                -3.658447027206421,
                -1.354086995124817
            ],
            "type" : "VEC3"
        },
        {
            "bufferView" : 6,
            "componentType" : 5126,
            "count" : 545,
            "type" : "VEC3"
        },
        {
            "bufferView" : 7,
            "componentType" : 5126,
            "count" : 545,
            "type" : "VEC4"
        },
        {
            "bufferView" : 8,
            "componentType" : 5126,
            "count" : 545,
            "type" : "VEC2"
        },
        {
            "bufferView" : 9,
            "componentType" : 5123,
            "count" : 810,
            "type" : "SCALAR"
        }
    ],
    "bufferViews" : [
        {
            "buffer" : 0,
            "byteLength" : 168,
            "byteOffset" : 0
        },
        {
            "buffer" : 0,
            "byteLength" : 168,
            "byteOffset" : 168
        },
        {
            "buffer" : 0,
            "byteLength" : 224,
            "byteOffset" : 336
        },
        {
            "buffer" : 0,
            "byteLength" : 112,
            "byteOffset" : 560
        },
        {
            "buffer" : 0,
            "byteLength" : 36,
            "byteOffset" : 672
        },
        {
            "buffer" : 0,
            "byteLength" : 6540,
            "byteOffset" : 708
        },
        {
            "buffer" : 0,
            "byteLength" : 6540,
            "byteOffset" : 7248
        },
        {
            "buffer" : 0,
            "byteLength" : 8720,
            "byteOffset" : 13788
        },
        {
            "buffer" : 0,
            "byteLength" : 4360,
            "byteOffset" : 22508
        },
        {
            "buffer" : 0,
            "byteLength" : 1620,
            "byteOffset" : 26868
        },
        {
            "buffer" : 0,
            "byteLength" : 183,
            "byteOffset" : 28488
        }
    ],
    "samplers" : [
        {
            "magFilter" : 9729,
            "minFilter" : 9987
        }
    ],
    "buffers" : [
        {
            "byteLength" : 28672,
            "uri" : "data:application/octet-stream;base64,"
        }
    ]
}
