{
    "asset" : {
        "generator" : "Khronos glTF Blender I/O v1.6.16",
        "version" : "2.0"
    },
    "scene" : 0,
    "scenes" : [
        {
            "name" : "Scene",
            "nodes" : [
                1
            ]
        }
    ],
    "nodes" : [
        {
            "mesh" : 0,
            "name" : "House4",
            "scale" : [
                3.052351951599121,
                12.016759872436523,
                4.846343994140625
            ]
        },
        {
            "children" : [
                0
            ],
            "name" : "House-1-4"
        }
    ],
    "materials" : [
        {
            "doubleSided" : true,
            "name" : "HouseWindow",
            "pbrMetallicRoughness" : {
                "baseColorFactor" : [
                    0.03507860377430916,
                    0.1531316041946411,
                    0.2956908047199249,
                    1
                ],
                "roughnessFactor" : 0.5
            }
        },
        {
            "doubleSided" : true,
            "name" : "HouseDiffuseOne",
            "pbrMetallicRoughness" : {
                "baseColorTexture" : {
                    "index" : 0
                },
                "metallicFactor" : 0,
                "roughnessFactor" : 0.5
            }
        }
    ],
    "meshes" : [
        {
            "name" : "Cube.277",
            "primitives" : [
                {
                    "attributes" : {
                        "POSITION" : 0,
                        "NORMAL" : 1,
                        "TANGENT" : 2,
                        "TEXCOORD_0" : 3
                    },
                    "indices" : 4,
                    "material" : 0
                },
                {
                    "attributes" : {
                        "POSITION" : 5,
                        "NORMAL" : 6,
                        "TANGENT" : 7,
                        "TEXCOORD_0" : 8
                    },
                    "indices" : 9,
                    "material" : 1
                }
            ]
        }
    ],
    "textures" : [
        {
            "sampler" : 0,
            "source" : 0
        }
    ],
    "images" : [
        {
            "bufferView" : 10,
            "mimeType" : "image/png",
            "name" : "Houses Colorscheme 2"
        }
    ],
    "accessors" : [
        {
            "bufferView" : 0,
            "componentType" : 5126,
            "count" : 150,
            "max" : [
                1.126757025718689,
                0.7465041279792786,
                1.0992859601974487
            ],
            "min" : [
                -0.6878044009208679,
                0.014363760128617287,
                -0.8173531293869019
            ],
            "type" : "VEC3"
        },
        {
            "bufferView" : 1,
            "componentType" : 5126,
            "count" : 150,
            "type" : "VEC3"
        },
        {
            "bufferView" : 2,
            "componentType" : 5126,
            "count" : 150,
            "type" : "VEC4"
        },
        {
            "bufferView" : 3,
            "componentType" : 5126,
            "count" : 150,
            "type" : "VEC2"
        },
        {
            "bufferView" : 4,
            "componentType" : 5123,
            "count" : 210,
            "type" : "SCALAR"
        },
        {
            "bufferView" : 5,
            "componentType" : 5126,
            "count" : 5357,
            "max" : [
                1.4211369752883911,
                1.1612880229949951,
                1.2832859754562378
            ],
            "min" : [
                -1.0670729875564575,
                -0.0041696419939398766,
                -1.0463249683380127
            ],
            "type" : "VEC3"
        },
        {
            "bufferView" : 6,
            "componentType" : 5126,
            "count" : 5357,
            "type" : "VEC3"
        },
        {
            "bufferView" : 7,
            "componentType" : 5126,
            "count" : 5357,
            "type" : "VEC4"
        },
        {
            "bufferView" : 8,
            "componentType" : 5126,
            "count" : 5357,
            "type" : "VEC2"
        },
        {
            "bufferView" : 9,
            "componentType" : 5123,
            "count" : 8454,
            "type" : "SCALAR"
        }
    ],
    "bufferViews" : [
        {
            "buffer" : 0,
            "byteLength" : 1800,
            "byteOffset" : 0
        },
        {
            "buffer" : 0,
            "byteLength" : 1800,
            "byteOffset" : 1800
        },
        {
            "buffer" : 0,
            "byteLength" : 2400,
            "byteOffset" : 3600
        },
        {
            "buffer" : 0,
            "byteLength" : 1200,
            "byteOffset" : 6000
        },
        {
            "buffer" : 0,
            "byteLength" : 420,
            "byteOffset" : 7200
        },
        {
            "buffer" : 0,
            "byteLength" : 64284,
            "byteOffset" : 7620
        },
        {
            "buffer" : 0,
            "byteLength" : 64284,
            "byteOffset" : 71904
        },
        {
            "buffer" : 0,
            "byteLength" : 85712,
            "byteOffset" : 136188
        },
        {
            "buffer" : 0,
            "byteLength" : 42856,
            "byteOffset" : 221900
        },
        {
            "buffer" : 0,
            "byteLength" : 16908,
            "byteOffset" : 264756
        },
        {
            "buffer" : 0,
            "byteLength" : 183,
            "byteOffset" : 281664
        }
    ],
    "samplers" : [
        {
            "magFilter" : 9729,
            "minFilter" : 9987
        }
    ],
    "buffers" : [
        {
            "byteLength" : 281848,
            "uri" : "data:application/octet-stream;base64,"
        }
    ]
}
