{
    "asset" : {
        "generator" : "Khronos glTF Blender I/O v1.6.16",
        "version" : "2.0"
    },
    "scene" : 0,
    "scenes" : [
        {
            "name" : "Scene",
            "nodes" : [
                1
            ]
        }
    ],
    "nodes" : [
        {
            "mesh" : 0,
            "name" : "House5",
            "scale" : [
                3.052351951599121,
                12.016759872436523,
                4.846343994140625
            ]
        },
        {
            "children" : [
                0
            ],
            "name" : "House-1-3"
        }
    ],
    "materials" : [
        {
            "doubleSided" : true,
            "name" : "HouseWindow",
            "pbrMetallicRoughness" : {
                "baseColorFactor" : [
                    0.03507860377430916,
                    0.1531316041946411,
                    0.2956908047199249,
                    1
                ],
                "roughnessFactor" : 0.5
            }
        },
        {
            "doubleSided" : true,
            "name" : "HouseDiffuseOne",
            "pbrMetallicRoughness" : {
                "baseColorTexture" : {
                    "index" : 0
                },
                "metallicFactor" : 0,
                "roughnessFactor" : 0.5
            }
        }
    ],
    "meshes" : [
        {
            "name" : "Cube.015",
            "primitives" : [
                {
                    "attributes" : {
                        "POSITION" : 0,
                        "NORMAL" : 1,
                        "TANGENT" : 2,
                        "TEXCOORD_0" : 3,
                        "COLOR_0" : 4
                    },
                    "indices" : 5,
                    "material" : 0
                },
                {
                    "attributes" : {
                        "POSITION" : 6,
                        "NORMAL" : 7,
                        "TANGENT" : 8,
                        "TEXCOORD_0" : 9,
                        "COLOR_0" : 10
                    },
                    "indices" : 11,
                    "material" : 1
                }
            ]
        }
    ],
    "textures" : [
        {
            "sampler" : 0,
            "source" : 0
        }
    ],
    "images" : [
        {
            "bufferView" : 12,
            "mimeType" : "image/png",
            "name" : "Houses Colorscheme 2"
        }
    ],
    "accessors" : [
        {
            "bufferView" : 0,
            "componentType" : 5126,
            "count" : 144,
            "max" : [
                1.4681620597839355,
                0.9627686142921448,
                0.8173528909683228
            ],
            "min" : [
                0.8836842179298401,
                0.01377773005515337,
                -0.817352831363678
            ],
            "type" : "VEC3"
        },
        {
            "bufferView" : 1,
            "componentType" : 5126,
            "count" : 144,
            "type" : "VEC3"
        },
        {
            "bufferView" : 2,
            "componentType" : 5126,
            "count" : 144,
            "type" : "VEC4"
        },
        {
            "bufferView" : 3,
            "componentType" : 5126,
            "count" : 144,
            "type" : "VEC2"
        },
        {
            "bufferView" : 4,
            "componentType" : 5123,
            "count" : 144,
            "normalized" : true,
            "type" : "VEC4"
        },
        {
            "bufferView" : 5,
            "componentType" : 5123,
            "count" : 198,
            "type" : "SCALAR"
        },
        {
            "bufferView" : 6,
            "componentType" : 5126,
            "count" : 6316,
            "max" : [
                1.5839794874191284,
                1.160485029220581,
                1.0463249683380127
            ],
            "min" : [
                -1.0670729875564575,
                -0.004755615722388029,
                -1.0463249683380127
            ],
            "type" : "VEC3"
        },
        {
            "bufferView" : 7,
            "componentType" : 5126,
            "count" : 6316,
            "type" : "VEC3"
        },
        {
            "bufferView" : 8,
            "componentType" : 5126,
            "count" : 6316,
            "type" : "VEC4"
        },
        {
            "bufferView" : 9,
            "componentType" : 5126,
            "count" : 6316,
            "type" : "VEC2"
        },
        {
            "bufferView" : 10,
            "componentType" : 5123,
            "count" : 6316,
            "normalized" : true,
            "type" : "VEC4"
        },
        {
            "bufferView" : 11,
            "componentType" : 5123,
            "count" : 9468,
            "type" : "SCALAR"
        }
    ],
    "bufferViews" : [
        {
            "buffer" : 0,
            "byteLength" : 1728,
            "byteOffset" : 0
        },
        {
            "buffer" : 0,
            "byteLength" : 1728,
            "byteOffset" : 1728
        },
        {
            "buffer" : 0,
            "byteLength" : 2304,
            "byteOffset" : 3456
        },
        {
            "buffer" : 0,
            "byteLength" : 1152,
            "byteOffset" : 5760
        },
        {
            "buffer" : 0,
            "byteLength" : 1152,
            "byteOffset" : 6912
        },
        {
            "buffer" : 0,
            "byteLength" : 396,
            "byteOffset" : 8064
        },
        {
            "buffer" : 0,
            "byteLength" : 75792,
            "byteOffset" : 8460
        },
        {
            "buffer" : 0,
            "byteLength" : 75792,
            "byteOffset" : 84252
        },
        {
            "buffer" : 0,
            "byteLength" : 101056,
            "byteOffset" : 160044
        },
        {
            "buffer" : 0,
            "byteLength" : 50528,
            "byteOffset" : 261100
        },
        {
            "buffer" : 0,
            "byteLength" : 50528,
            "byteOffset" : 311628
        },
        {
            "buffer" : 0,
            "byteLength" : 18936,
            "byteOffset" : 362156
        },
        {
            "buffer" : 0,
            "byteLength" : 183,
            "byteOffset" : 381092
        }
    ],
    "samplers" : [
        {
            "magFilter" : 9729,
            "minFilter" : 9987
        }
    ],
    "buffers" : [
        {
            "byteLength" : 381276,
            "uri" : "data:application/octet-stream;base64,"
        }
    ]
}
