{
    "asset" : {
        "generator" : "Khronos glTF Blender I/O v1.6.16",
        "version" : "2.0"
    },
    "scene" : 0,
    "scenes" : [
        {
            "name" : "Scene",
            "nodes" : [
                1
            ]
        }
    ],
    "nodes" : [
        {
            "mesh" : 0,
            "name" : "House2",
            "scale" : [
                3.052351951599121,
                12.016759872436523,
                4.846343994140625
            ]
        },
        {
            "children" : [
                0
            ],
            "name" : "House-2-1"
        }
    ],
    "materials" : [
        {
            "doubleSided" : true,
            "name" : "HouseWindow",
            "pbrMetallicRoughness" : {
                "baseColorFactor" : [
                    0.03507860377430916,
                    0.1531316041946411,
                    0.2956908047199249,
                    1
                ],
                "roughnessFactor" : 0.5
            }
        },
        {
            "doubleSided" : true,
            "name" : "HouseDiffuseOne",
            "pbrMetallicRoughness" : {
                "baseColorTexture" : {
                    "index" : 0
                },
                "metallicFactor" : 0,
                "roughnessFactor" : 0.5
            }
        }
    ],
    "meshes" : [
        {
            "name" : "Cube.547",
            "primitives" : [
                {
                    "attributes" : {
                        "POSITION" : 0,
                        "NORMAL" : 1,
                        "TANGENT" : 2,
                        "TEXCOORD_0" : 3,
                        "COLOR_0" : 4
                    },
                    "indices" : 5,
                    "material" : 0
                },
                {
                    "attributes" : {
                        "POSITION" : 6,
                        "NORMAL" : 7,
                        "TANGENT" : 8,
                        "TEXCOORD_0" : 9,
                        "COLOR_0" : 10
                    },
                    "indices" : 11,
                    "material" : 1
                }
            ]
        }
    ],
    "textures" : [
        {
            "sampler" : 0,
            "source" : 0
        }
    ],
    "images" : [
        {
            "bufferView" : 12,
            "mimeType" : "image/png",
            "name" : "Houses Colorscheme 2"
        }
    ],
    "accessors" : [
        {
            "bufferView" : 0,
            "componentType" : 5126,
            "count" : 136,
            "max" : [
                1.414674997329712,
                1.0081759691238403,
                1.0729199647903442
            ],
            "min" : [
                0.8204346299171448,
                0.01624958962202072,
                -1.0729199647903442
            ],
            "type" : "VEC3"
        },
        {
            "bufferView" : 1,
            "componentType" : 5126,
            "count" : 136,
            "type" : "VEC3"
        },
        {
            "bufferView" : 2,
            "componentType" : 5126,
            "count" : 136,
            "type" : "VEC4"
        },
        {
            "bufferView" : 3,
            "componentType" : 5126,
            "count" : 136,
            "type" : "VEC2"
        },
        {
            "bufferView" : 4,
            "componentType" : 5123,
            "count" : 136,
            "normalized" : true,
            "type" : "VEC4"
        },
        {
            "bufferView" : 5,
            "componentType" : 5123,
            "count" : 204,
            "type" : "SCALAR"
        },
        {
            "bufferView" : 6,
            "componentType" : 5126,
            "count" : 6086,
            "max" : [
                1.530089020729065,
                1.2085000276565552,
                1.2552289962768555
            ],
            "min" : [
                -1.041614055633545,
                -0.002283751033246517,
                -1.255228042602539
            ],
            "type" : "VEC3"
        },
        {
            "bufferView" : 7,
            "componentType" : 5126,
            "count" : 6086,
            "type" : "VEC3"
        },
        {
            "bufferView" : 8,
            "componentType" : 5126,
            "count" : 6086,
            "type" : "VEC4"
        },
        {
            "bufferView" : 9,
            "componentType" : 5126,
            "count" : 6086,
            "type" : "VEC2"
        },
        {
            "bufferView" : 10,
            "componentType" : 5123,
            "count" : 6086,
            "normalized" : true,
            "type" : "VEC4"
        },
        {
            "bufferView" : 11,
            "componentType" : 5123,
            "count" : 9600,
            "type" : "SCALAR"
        }
    ],
    "bufferViews" : [
        {
            "buffer" : 0,
            "byteLength" : 1632,
            "byteOffset" : 0
        },
        {
            "buffer" : 0,
            "byteLength" : 1632,
            "byteOffset" : 1632
        },
        {
            "buffer" : 0,
            "byteLength" : 2176,
            "byteOffset" : 3264
        },
        {
            "buffer" : 0,
            "byteLength" : 1088,
            "byteOffset" : 5440
        },
        {
            "buffer" : 0,
            "byteLength" : 1088,
            "byteOffset" : 6528
        },
        {
            "buffer" : 0,
            "byteLength" : 408,
            "byteOffset" : 7616
        },
        {
            "buffer" : 0,
            "byteLength" : 73032,
            "byteOffset" : 8024
        },
        {
            "buffer" : 0,
            "byteLength" : 73032,
            "byteOffset" : 81056
        },
        {
            "buffer" : 0,
            "byteLength" : 97376,
            "byteOffset" : 154088
        },
        {
            "buffer" : 0,
            "byteLength" : 48688,
            "byteOffset" : 251464
        },
        {
            "buffer" : 0,
            "byteLength" : 48688,
            "byteOffset" : 300152
        },
        {
            "buffer" : 0,
            "byteLength" : 19200,
            "byteOffset" : 348840
        },
        {
            "buffer" : 0,
            "byteLength" : 183,
            "byteOffset" : 368040
        }
    ],
    "samplers" : [
        {
            "magFilter" : 9729,
            "minFilter" : 9987
        }
    ],
    "buffers" : [
        {
            "byteLength" : 368224,
            "uri" : "data:application/octet-stream;base64,"
        }
    ]
}
