{
    "asset" : {
        "generator" : "Khronos glTF Blender I/O v1.6.16",
        "version" : "2.0"
    },
    "scene" : 0,
    "scenes" : [
        {
            "name" : "Scene",
            "nodes" : [
                1
            ]
        }
    ],
    "nodes" : [
        {
            "mesh" : 0,
            "name" : "House7"
        },
        {
            "children" : [
                0
            ],
            "name" : "House-1-1"
        }
    ],
    "materials" : [
        {
            "doubleSided" : true,
            "name" : "HouseWindow",
            "pbrMetallicRoughness" : {
                "baseColorFactor" : [
                    0.03507860377430916,
                    0.1531316041946411,
                    0.2956908047199249,
                    1
                ],
                "roughnessFactor" : 0.5
            }
        },
        {
            "doubleSided" : true,
            "name" : "HouseDiffuseOne",
            "pbrMetallicRoughness" : {
                "baseColorTexture" : {
                    "index" : 0
                },
                "metallicFactor" : 0,
                "roughnessFactor" : 0.5
            }
        }
    ],
    "meshes" : [
        {
            "name" : "Cube.374",
            "primitives" : [
                {
                    "attributes" : {
                        "POSITION" : 0,
                        "NORMAL" : 1,
                        "TANGENT" : 2,
                        "TEXCOORD_0" : 3
                    },
                    "indices" : 4,
                    "material" : 0
                },
                {
                    "attributes" : {
                        "POSITION" : 5,
                        "NORMAL" : 6,
                        "TANGENT" : 7,
                        "TEXCOORD_0" : 8
                    },
                    "indices" : 9,
                    "material" : 1
                }
            ]
        }
    ],
    "textures" : [
        {
            "sampler" : 0,
            "source" : 0
        }
    ],
    "images" : [
        {
            "bufferView" : 10,
            "mimeType" : "image/png",
            "name" : "Houses Colorscheme 2"
        }
    ],
    "accessors" : [
        {
            "bufferView" : 0,
            "componentType" : 5126,
            "count" : 198,
            "max" : [
                4.481346130371094,
                14.663690567016602,
                3.961174488067627
            ],
            "min" : [
                2.697313070297241,
                0.21565216779708862,
                -3.9611735343933105
            ],
            "type" : "VEC3"
        },
        {
            "bufferView" : 1,
            "componentType" : 5126,
            "count" : 198,
            "type" : "VEC3"
        },
        {
            "bufferView" : 2,
            "componentType" : 5126,
            "count" : 198,
            "type" : "VEC4"
        },
        {
            "bufferView" : 3,
            "componentType" : 5126,
            "count" : 198,
            "type" : "VEC2"
        },
        {
            "bufferView" : 4,
            "componentType" : 5123,
            "count" : 288,
            "type" : "SCALAR"
        },
        {
            "bufferView" : 5,
            "componentType" : 5126,
            "count" : 9217,
            "max" : [
                4.834861755371094,
                17.0710391998291,
                5.070849418640137
            ],
            "min" : [
                -3.2570838928222656,
                -0.007059394847601652,
                -5.070849418640137
            ],
            "type" : "VEC3"
        },
        {
            "bufferView" : 6,
            "componentType" : 5126,
            "count" : 9217,
            "type" : "VEC3"
        },
        {
            "bufferView" : 7,
            "componentType" : 5126,
            "count" : 9217,
            "type" : "VEC4"
        },
        {
            "bufferView" : 8,
            "componentType" : 5126,
            "count" : 9217,
            "type" : "VEC2"
        },
        {
            "bufferView" : 9,
            "componentType" : 5123,
            "count" : 13800,
            "type" : "SCALAR"
        }
    ],
    "bufferViews" : [
        {
            "buffer" : 0,
            "byteLength" : 2376,
            "byteOffset" : 0
        },
        {
            "buffer" : 0,
            "byteLength" : 2376,
            "byteOffset" : 2376
        },
        {
            "buffer" : 0,
            "byteLength" : 3168,
            "byteOffset" : 4752
        },
        {
            "buffer" : 0,
            "byteLength" : 1584,
            "byteOffset" : 7920
        },
        {
            "buffer" : 0,
            "byteLength" : 576,
            "byteOffset" : 9504
        },
        {
            "buffer" : 0,
            "byteLength" : 110604,
            "byteOffset" : 10080
        },
        {
            "buffer" : 0,
            "byteLength" : 110604,
            "byteOffset" : 120684
        },
        {
            "buffer" : 0,
            "byteLength" : 147472,
            "byteOffset" : 231288
        },
        {
            "buffer" : 0,
            "byteLength" : 73736,
            "byteOffset" : 378760
        },
        {
            "buffer" : 0,
            "byteLength" : 27600,
            "byteOffset" : 452496
        },
        {
            "buffer" : 0,
            "byteLength" : 183,
            "byteOffset" : 480096
        }
    ],
    "samplers" : [
        {
            "magFilter" : 9729,
            "minFilter" : 9987
        }
    ],
    "buffers" : [
        {
            "byteLength" : 480280,
            "uri" : "data:application/octet-stream;base64,"
        }
    ]
}
