{
    "asset" : {
        "generator" : "Khronos glTF Blender I/O v1.6.16",
        "version" : "2.0"
    },
    "scene" : 0,
    "scenes" : [
        {
            "name" : "Scene",
            "nodes" : [
                1
            ]
        }
    ],
    "nodes" : [
        {
            "mesh" : 0,
            "name" : "House6",
            "scale" : [
                3.052351951599121,
                12.016759872436523,
                4.846343040466309
            ]
        },
        {
            "children" : [
                0
            ],
            "name" : "House-1-2"
        }
    ],
    "materials" : [
        {
            "doubleSided" : true,
            "name" : "HouseWindow",
            "pbrMetallicRoughness" : {
                "baseColorFactor" : [
                    0.03507860377430916,
                    0.1531316041946411,
                    0.2956908047199249,
                    1
                ],
                "roughnessFactor" : 0.5
            }
        },
        {
            "doubleSided" : true,
            "name" : "HouseDiffuseOne",
            "pbrMetallicRoughness" : {
                "baseColorTexture" : {
                    "index" : 0
                },
                "metallicFactor" : 0,
                "roughnessFactor" : 0.5
            }
        }
    ],
    "meshes" : [
        {
            "name" : "Cube.294",
            "primitives" : [
                {
                    "attributes" : {
                        "POSITION" : 0,
                        "NORMAL" : 1,
                        "TANGENT" : 2,
                        "TEXCOORD_0" : 3,
                        "COLOR_0" : 4
                    },
                    "indices" : 5,
                    "material" : 0
                },
                {
                    "attributes" : {
                        "POSITION" : 6,
                        "NORMAL" : 7,
                        "TANGENT" : 8,
                        "TEXCOORD_0" : 9,
                        "COLOR_0" : 10
                    },
                    "indices" : 11,
                    "material" : 1
                }
            ]
        }
    ],
    "textures" : [
        {
            "sampler" : 0,
            "source" : 0
        }
    ],
    "images" : [
        {
            "bufferView" : 12,
            "mimeType" : "image/png",
            "name" : "Houses Colorscheme 2"
        }
    ],
    "accessors" : [
        {
            "bufferView" : 0,
            "componentType" : 5126,
            "count" : 274,
            "max" : [
                1.4681620597839355,
                1.21622896194458,
                1.0992859601974487
            ],
            "min" : [
                -0.687804102897644,
                0.013904979452490807,
                -0.817352831363678
            ],
            "type" : "VEC3"
        },
        {
            "bufferView" : 1,
            "componentType" : 5126,
            "count" : 274,
            "type" : "VEC3"
        },
        {
            "bufferView" : 2,
            "componentType" : 5126,
            "count" : 274,
            "type" : "VEC4"
        },
        {
            "bufferView" : 3,
            "componentType" : 5126,
            "count" : 274,
            "type" : "VEC2"
        },
        {
            "bufferView" : 4,
            "componentType" : 5123,
            "count" : 274,
            "normalized" : true,
            "type" : "VEC4"
        },
        {
            "bufferView" : 5,
            "componentType" : 5123,
            "count" : 366,
            "type" : "SCALAR"
        },
        {
            "bufferView" : 6,
            "componentType" : 5126,
            "count" : 9888,
            "max" : [
                1.5839794874191284,
                1.4165610074996948,
                1.2832859754562378
            ],
            "min" : [
                -1.0670729875564575,
                -0.004628479015082121,
                -1.0463249683380127
            ],
            "type" : "VEC3"
        },
        {
            "bufferView" : 7,
            "componentType" : 5126,
            "count" : 9888,
            "type" : "VEC3"
        },
        {
            "bufferView" : 8,
            "componentType" : 5126,
            "count" : 9888,
            "type" : "VEC4"
        },
        {
            "bufferView" : 9,
            "componentType" : 5126,
            "count" : 9888,
            "type" : "VEC2"
        },
        {
            "bufferView" : 10,
            "componentType" : 5123,
            "count" : 9888,
            "normalized" : true,
            "type" : "VEC4"
        },
        {
            "bufferView" : 11,
            "componentType" : 5123,
            "count" : 14880,
            "type" : "SCALAR"
        }
    ],
    "bufferViews" : [
        {
            "buffer" : 0,
            "byteLength" : 3288,
            "byteOffset" : 0
        },
        {
            "buffer" : 0,
            "byteLength" : 3288,
            "byteOffset" : 3288
        },
        {
            "buffer" : 0,
            "byteLength" : 4384,
            "byteOffset" : 6576
        },
        {
            "buffer" : 0,
            "byteLength" : 2192,
            "byteOffset" : 10960
        },
        {
            "buffer" : 0,
            "byteLength" : 2192,
            "byteOffset" : 13152
        },
        {
            "buffer" : 0,
            "byteLength" : 732,
            "byteOffset" : 15344
        },
        {
            "buffer" : 0,
            "byteLength" : 118656,
            "byteOffset" : 16076
        },
        {
            "buffer" : 0,
            "byteLength" : 118656,
            "byteOffset" : 134732
        },
        {
            "buffer" : 0,
            "byteLength" : 158208,
            "byteOffset" : 253388
        },
        {
            "buffer" : 0,
            "byteLength" : 79104,
            "byteOffset" : 411596
        },
        {
            "buffer" : 0,
            "byteLength" : 79104,
            "byteOffset" : 490700
        },
        {
            "buffer" : 0,
            "byteLength" : 29760,
            "byteOffset" : 569804
        },
        {
            "buffer" : 0,
            "byteLength" : 183,
            "byteOffset" : 599564
        }
    ],
    "samplers" : [
        {
            "magFilter" : 9729,
            "minFilter" : 9987
        }
    ],
    "buffers" : [
        {
            "byteLength" : 599748,
            "uri" : "data:application/octet-stream;base64,"
        }
    ]
}
