{
    "asset" : {
        "generator" : "Khronos glTF Blender I/O v1.6.16",
        "version" : "2.0"
    },
    "scene" : 0,
    "scenes" : [
        {
            "name" : "Scene",
            "nodes" : [
                1
            ]
        }
    ],
    "nodes" : [
        {
            "mesh" : 0,
            "name" : "House1",
            "rotation" : [
                0,
                -0.7071068286895752,
                0,
                0.7071067094802856
            ],
            "scale" : [
                0.8363922834396362,
                0.8363922834396362,
                0.5182403326034546
            ],
            "translation" : [
                -0.6536493301391602,
                11.399970054626465,
                5.909592151641846
            ]
        },
        {
            "children" : [
                0
            ],
            "name" : "House-2-2",
            "translation" : [
                0.6536493301391602,
                -11.399970054626465,
                -5.9095916748046875
            ]
        }
    ],
    "materials" : [
        {
            "doubleSided" : true,
            "name" : "HouseWindow",
            "pbrMetallicRoughness" : {
                "baseColorFactor" : [
                    0.03507860377430916,
                    0.1531316041946411,
                    0.2956908047199249,
                    1
                ],
                "roughnessFactor" : 0.5
            }
        },
        {
            "doubleSided" : true,
            "name" : "HouseDiffuseOne",
            "pbrMetallicRoughness" : {
                "baseColorTexture" : {
                    "index" : 0
                },
                "metallicFactor" : 0,
                "roughnessFactor" : 0.5
            }
        }
    ],
    "meshes" : [
        {
            "name" : "Cube.528",
            "primitives" : [
                {
                    "attributes" : {
                        "POSITION" : 0,
                        "NORMAL" : 1,
                        "TANGENT" : 2,
                        "TEXCOORD_0" : 3,
                        "COLOR_0" : 4
                    },
                    "indices" : 5,
                    "material" : 0
                },
                {
                    "attributes" : {
                        "POSITION" : 6,
                        "NORMAL" : 7,
                        "TANGENT" : 8,
                        "TEXCOORD_0" : 9,
                        "COLOR_0" : 10
                    },
                    "indices" : 11,
                    "material" : 1
                }
            ]
        }
    ],
    "textures" : [
        {
            "sampler" : 0,
            "source" : 0
        }
    ],
    "images" : [
        {
            "bufferView" : 12,
            "mimeType" : "image/png",
            "name" : "Houses Colorscheme 2"
        }
    ],
    "accessors" : [
        {
            "bufferView" : 0,
            "componentType" : 5126,
            "count" : 314,
            "max" : [
                1.5883592367172241,
                0.8549079895019531,
                2.9110360145568848
            ],
            "min" : [
                -14.03877067565918,
                -13.396467208862305,
                -9.59349250793457
            ],
            "type" : "VEC3"
        },
        {
            "bufferView" : 1,
            "componentType" : 5126,
            "count" : 314,
            "type" : "VEC3"
        },
        {
            "bufferView" : 2,
            "componentType" : 5126,
            "count" : 314,
            "type" : "VEC4"
        },
        {
            "bufferView" : 3,
            "componentType" : 5126,
            "count" : 314,
            "type" : "VEC2"
        },
        {
            "bufferView" : 4,
            "componentType" : 5123,
            "count" : 314,
            "normalized" : true,
            "type" : "VEC4"
        },
        {
            "bufferView" : 5,
            "componentType" : 5123,
            "count" : 444,
            "type" : "SCALAR"
        },
        {
            "bufferView" : 6,
            "componentType" : 5126,
            "count" : 12327,
            "max" : [
                2.092972755432129,
                5.722352981567383,
                4.873656272888184
            ],
            "min" : [
                -14.3388032913208,
                -13.66274356842041,
                -10.273256301879883
            ],
            "type" : "VEC3"
        },
        {
            "bufferView" : 7,
            "componentType" : 5126,
            "count" : 12327,
            "type" : "VEC3"
        },
        {
            "bufferView" : 8,
            "componentType" : 5126,
            "count" : 12327,
            "type" : "VEC4"
        },
        {
            "bufferView" : 9,
            "componentType" : 5126,
            "count" : 12327,
            "type" : "VEC2"
        },
        {
            "bufferView" : 10,
            "componentType" : 5123,
            "count" : 12327,
            "normalized" : true,
            "type" : "VEC4"
        },
        {
            "bufferView" : 11,
            "componentType" : 5123,
            "count" : 17400,
            "type" : "SCALAR"
        }
    ],
    "bufferViews" : [
        {
            "buffer" : 0,
            "byteLength" : 3768,
            "byteOffset" : 0
        },
        {
            "buffer" : 0,
            "byteLength" : 3768,
            "byteOffset" : 3768
        },
        {
            "buffer" : 0,
            "byteLength" : 5024,
            "byteOffset" : 7536
        },
        {
            "buffer" : 0,
            "byteLength" : 2512,
            "byteOffset" : 12560
        },
        {
            "buffer" : 0,
            "byteLength" : 2512,
            "byteOffset" : 15072
        },
        {
            "buffer" : 0,
            "byteLength" : 888,
            "byteOffset" : 17584
        },
        {
            "buffer" : 0,
            "byteLength" : 147924,
            "byteOffset" : 18472
        },
        {
            "buffer" : 0,
            "byteLength" : 147924,
            "byteOffset" : 166396
        },
        {
            "buffer" : 0,
            "byteLength" : 197232,
            "byteOffset" : 314320
        },
        {
            "buffer" : 0,
            "byteLength" : 98616,
            "byteOffset" : 511552
        },
        {
            "buffer" : 0,
            "byteLength" : 98616,
            "byteOffset" : 610168
        },
        {
            "buffer" : 0,
            "byteLength" : 34800,
            "byteOffset" : 708784
        },
        {
            "buffer" : 0,
            "byteLength" : 183,
            "byteOffset" : 743584
        }
    ],
    "samplers" : [
        {
            "magFilter" : 9729,
            "minFilter" : 9987
        }
    ],
    "buffers" : [
        {
            "byteLength" : 743768,
            "uri" : "data:application/octet-stream;base64,"
        }
    ]
}
