{
    "asset" : {
        "generator" : "Khronos glTF Blender I/O v1.6.16",
        "version" : "2.0"
    },
    "scene" : 0,
    "scenes" : [
        {
            "name" : "Scene",
            "nodes" : [
                0
            ]
        }
    ],
    "nodes" : [
        {
            "mesh" : 0,
            "name" : "Pier"
        }
    ],
    "materials" : [
        {
            "doubleSided" : true,
            "name" : "WoodDiffuse",
            "pbrMetallicRoughness" : {
                "baseColorTexture" : {
                    "index" : 0
                },
                "metallicFactor" : 0,
                "roughnessFactor" : 0.5
            }
        }
    ],
    "meshes" : [
        {
            "name" : "Cube.043",
            "primitives" : [
                {
                    "attributes" : {
                        "POSITION" : 0,
                        "NORMAL" : 1,
                        "TANGENT" : 2,
                        "TEXCOORD_0" : 3
                    },
                    "indices" : 4,
                    "material" : 0
                }
            ]
        }
    ],
    "textures" : [
        {
            "sampler" : 0,
            "source" : 0
        }
    ],
    "images" : [
        {
            "bufferView" : 5,
            "mimeType" : "image/png",
            "name" : "GroundDirtColor"
        }
    ],
    "accessors" : [
        {
            "bufferView" : 0,
            "componentType" : 5126,
            "count" : 655,
            "max" : [
                1.447962999343872,
                0.8671349883079529,
                1.4357709884643555
            ],
            "min" : [
                -7.319642066955566,
                -4.990431785583496,
                -1.47502601146698
            ],
            "type" : "VEC3"
        },
        {
            "bufferView" : 1,
            "componentType" : 5126,
            "count" : 655,
            "type" : "VEC3"
        },
        {
            "bufferView" : 2,
            "componentType" : 5126,
            "count" : 655,
            "type" : "VEC4"
        },
        {
            "bufferView" : 3,
            "componentType" : 5126,
            "count" : 655,
            "type" : "VEC2"
        },
        {
            "bufferView" : 4,
            "componentType" : 5123,
            "count" : 876,
            "type" : "SCALAR"
        }
    ],
    "bufferViews" : [
        {
            "buffer" : 0,
            "byteLength" : 7860,
            "byteOffset" : 0
        },
        {
            "buffer" : 0,
            "byteLength" : 7860,
            "byteOffset" : 7860
        },
        {
            "buffer" : 0,
            "byteLength" : 10480,
            "byteOffset" : 15720
        },
        {
            "buffer" : 0,
            "byteLength" : 5240,
            "byteOffset" : 26200
        },
        {
            "buffer" : 0,
            "byteLength" : 1752,
            "byteOffset" : 31440
        },
        {
            "buffer" : 0,
            "byteLength" : 20566,
            "byteOffset" : 33192
        }
    ],
    "samplers" : [
        {
            "magFilter" : 9729,
            "minFilter" : 9987
        }
    ],
    "buffers" : [
        {
            "byteLength" : 53760,
            "uri" : "data:application/octet-stream;base64,"
        }
    ]
}
