{
    "asset" : {
        "generator" : "Khronos glTF Blender I/O v1.6.16",
        "version" : "2.0"
    },
    "scene" : 0,
    "scenes" : [
        {
            "name" : "Scene",
            "nodes" : [
                0
            ]
        }
    ],
    "nodes" : [
        {
            "mesh" : 0,
            "name" : "Tree",
            "rotation" : [
                0,
                -0.18295694887638092,
                0,
                0.9831209182739258
            ]
        }
    ],
    "materials" : [
        {
            "doubleSided" : true,
            "name" : "TreeDiffuse",
            "pbrMetallicRoughness" : {
                "baseColorTexture" : {
                    "index" : 0
                },
                "metallicFactor" : 0,
                "roughnessFactor" : 0.5
            }
        },
        {
            "doubleSided" : true,
            "name" : "TreeFoliage",
            "pbrMetallicRoughness" : {
                "baseColorTexture" : {
                    "index" : 1
                },
                "metallicFactor" : 0,
                "roughnessFactor" : 0.5
            }
        }
    ],
    "meshes" : [
        {
            "name" : "Cube.003",
            "primitives" : [
                {
                    "attributes" : {
                        "POSITION" : 0,
                        "NORMAL" : 1,
                        "TANGENT" : 2,
                        "TEXCOORD_0" : 3
                    },
                    "indices" : 4,
                    "material" : 0
                },
                {
                    "attributes" : {
                        "POSITION" : 5,
                        "NORMAL" : 6,
                        "TANGENT" : 7,
                        "TEXCOORD_0" : 8
                    },
                    "indices" : 9,
                    "material" : 1
                }
            ]
        }
    ],
    "textures" : [
        {
            "sampler" : 0,
            "source" : 0
        },
        {
            "sampler" : 0,
            "source" : 1
        }
    ],
    "images" : [
        {
            "bufferView" : 5,
            "mimeType" : "image/png",
            "name" : "TreesColorscheme"
        },
        {
            "bufferView" : 11,
            "mimeType" : "image/png",
            "name" : "FoliageColor"
        }
    ],
    "accessors" : [
        {
            "bufferView" : 0,
            "componentType" : 5126,
            "count" : 430,
            "max" : [
                1.4833649396896362,
                5.305665016174316,
                1.2763599157333374
            ],
            "min" : [
                -0.9730716347694397,
                -0.09914790838956833,
                -0.2031044065952301
            ],
            "type" : "VEC3"
        },
        {
            "bufferView" : 1,
            "componentType" : 5126,
            "count" : 430,
            "type" : "VEC3"
        },
        {
            "bufferView" : 2,
            "componentType" : 5126,
            "count" : 430,
            "type" : "VEC4"
        },
        {
            "bufferView" : 3,
            "componentType" : 5126,
            "count" : 430,
            "type" : "VEC2"
        },
        {
            "bufferView" : 4,
            "componentType" : 5123,
            "count" : 432,
            "type" : "SCALAR"
        },
        {
            "bufferView" : 6,
            "componentType" : 5126,
            "count" : 1680,
            "max" : [
                2.3588719367980957,
                7.59138298034668,
                2.2502379417419434
            ],
            "min" : [
                -2.079706907272339,
                1.4616010189056396,
                -1.1452879905700684
            ],
            "type" : "VEC3"
        },
        {
            "bufferView" : 7,
            "componentType" : 5126,
            "count" : 1680,
            "type" : "VEC3"
        },
        {
            "bufferView" : 8,
            "componentType" : 5126,
            "count" : 1680,
            "type" : "VEC4"
        },
        {
            "bufferView" : 9,
            "componentType" : 5126,
            "count" : 1680,
            "type" : "VEC2"
        },
        {
            "bufferView" : 10,
            "componentType" : 5123,
            "count" : 1680,
            "type" : "SCALAR"
        }
    ],
    "bufferViews" : [
        {
            "buffer" : 0,
            "byteLength" : 5160,
            "byteOffset" : 0
        },
        {
            "buffer" : 0,
            "byteLength" : 5160,
            "byteOffset" : 5160
        },
        {
            "buffer" : 0,
            "byteLength" : 6880,
            "byteOffset" : 10320
        },
        {
            "buffer" : 0,
            "byteLength" : 3440,
            "byteOffset" : 17200
        },
        {
            "buffer" : 0,
            "byteLength" : 864,
            "byteOffset" : 20640
        },
        {
            "buffer" : 0,
            "byteLength" : 225,
            "byteOffset" : 21504
        },
        {
            "buffer" : 0,
            "byteLength" : 20160,
            "byteOffset" : 21732
        },
        {
            "buffer" : 0,
            "byteLength" : 20160,
            "byteOffset" : 41892
        },
        {
            "buffer" : 0,
            "byteLength" : 26880,
            "byteOffset" : 62052
        },
        {
            "buffer" : 0,
            "byteLength" : 13440,
            "byteOffset" : 88932
        },
        {
            "buffer" : 0,
            "byteLength" : 3360,
            "byteOffset" : 102372
        },
        {
            "buffer" : 0,
            "byteLength" : 404753,
            "byteOffset" : 105732
        }
    ],
    "samplers" : [
        {
            "magFilter" : 9729,
            "minFilter" : 9987
        }
    ],
    "buffers" : [
        {
            "byteLength" : 510488,
            "uri" : "data:application/octet-stream;base64,"
        }
    ]
}
