{
    "asset" : {
        "generator" : "Khronos glTF Blender I/O v1.6.16",
        "version" : "2.0"
    },
    "scene" : 0,
    "scenes" : [
        {
            "name" : "Scene",
            "nodes" : [
                0
            ]
        }
    ],
    "nodes" : [
        {
            "mesh" : 0,
            "name" : "SM_Bld_StairsLarge_Corner_01_Snow",
            "rotation" : [
                0.7071068286895752,
                0,
                0,
                0.7071067094802856
            ],
            "scale" : [
                0.009999999776482582,
                0.009999999776482582,
                0.009999999776482582
            ]
        }
    ],
    "materials" : [
        {
            "alphaMode" : "BLEND",
            "doubleSided" : true,
            "name" : "lambert1.195",
            "pbrMetallicRoughness" : {
                "baseColorTexture" : {
                    "index" : 0
                },
                "metallicFactor" : 0,
                "roughnessFactor" : 0.5527864098548889
            }
        }
    ],
    "meshes" : [
        {
            "name" : "Mesh.200",
            "primitives" : [
                {
                    "attributes" : {
                        "POSITION" : 0,
                        "NORMAL" : 1,
                        "TANGENT" : 2,
                        "TEXCOORD_0" : 3,
                        "TEXCOORD_1" : 4
                    },
                    "indices" : 5,
                    "material" : 0
                }
            ]
        }
    ],
    "textures" : [
        {
            "sampler" : 0,
            "source" : 0
        }
    ],
    "images" : [
        {
            "bufferView" : 6,
            "mimeType" : "image/png",
            "name" : "Texture_01"
        }
    ],
    "accessors" : [
        {
            "bufferView" : 0,
            "componentType" : 5126,
            "count" : 968,
            "max" : [
                385.9104919433594,
                385.9002685546875,
                0
            ],
            "min" : [
                -0.05370686948299408,
                -0.0489501953125,
                -204.27996826171875
            ],
            "type" : "VEC3"
        },
        {
            "bufferView" : 1,
            "componentType" : 5126,
            "count" : 968,
            "type" : "VEC3"
        },
        {
            "bufferView" : 2,
            "componentType" : 5126,
            "count" : 968,
            "type" : "VEC4"
        },
        {
            "bufferView" : 3,
            "componentType" : 5126,
            "count" : 968,
            "type" : "VEC2"
        },
        {
            "bufferView" : 4,
            "componentType" : 5126,
            "count" : 968,
            "type" : "VEC2"
        },
        {
            "bufferView" : 5,
            "componentType" : 5123,
            "count" : 1176,
            "type" : "SCALAR"
        }
    ],
    "bufferViews" : [
        {
            "buffer" : 0,
            "byteLength" : 11616,
            "byteOffset" : 0
        },
        {
            "buffer" : 0,
            "byteLength" : 11616,
            "byteOffset" : 11616
        },
        {
            "buffer" : 0,
            "byteLength" : 15488,
            "byteOffset" : 23232
        },
        {
            "buffer" : 0,
            "byteLength" : 7744,
            "byteOffset" : 38720
        },
        {
            "buffer" : 0,
            "byteLength" : 7744,
            "byteOffset" : 46464
        },
        {
            "buffer" : 0,
            "byteLength" : 2352,
            "byteOffset" : 54208
        },
        {
            "buffer" : 0,
            "byteLength" : 13061,
            "byteOffset" : 56560
        }
    ],
    "samplers" : [
        {
            "magFilter" : 9729,
            "minFilter" : 9987
        }
    ],
    "buffers" : [
        {
            "byteLength" : 69624,
            "uri" : "data:application/octet-stream;base64,"
        }
    ]
}
