{
    "asset" : {
        "generator" : "Khronos glTF Blender I/O v1.6.16",
        "version" : "2.0"
    },
    "scene" : 0,
    "scenes" : [
        {
            "name" : "Scene",
            "nodes" : [
                0
            ]
        }
    ],
    "nodes" : [
        {
            "mesh" : 0,
            "name" : "SM_Env_Tree_Twisted_01_Snow",
            "rotation" : [
                0.7071068286895752,
                0,
                0,
                0.7071067094802856
            ],
            "scale" : [
                0.009999999776482582,
                0.009999999776482582,
                0.009999999776482582
            ]
        }
    ],
    "materials" : [
        {
            "alphaMode" : "BLEND",
            "doubleSided" : true,
            "name" : "lambert1.263",
            "pbrMetallicRoughness" : {
                "baseColorTexture" : {
                    "index" : 0
                },
                "metallicFactor" : 0,
                "roughnessFactor" : 0.5527864098548889
            }
        }
    ],
    "meshes" : [
        {
            "name" : "Mesh.268",
            "primitives" : [
                {
                    "attributes" : {
                        "POSITION" : 0,
                        "NORMAL" : 1,
                        "TANGENT" : 2,
                        "TEXCOORD_0" : 3,
                        "TEXCOORD_1" : 4
                    },
                    "indices" : 5,
                    "material" : 0
                }
            ]
        }
    ],
    "textures" : [
        {
            "sampler" : 0,
            "source" : 0
        }
    ],
    "images" : [
        {
            "bufferView" : 6,
            "mimeType" : "image/png",
            "name" : "Texture_01"
        }
    ],
    "accessors" : [
        {
            "bufferView" : 0,
            "componentType" : 5126,
            "count" : 2178,
            "max" : [
                138.671875,
                152.30712890625,
                0
            ],
            "min" : [
                -195.166015625,
                -147.85003662109375,
                -511.0226745605469
            ],
            "type" : "VEC3"
        },
        {
            "bufferView" : 1,
            "componentType" : 5126,
            "count" : 2178,
            "type" : "VEC3"
        },
        {
            "bufferView" : 2,
            "componentType" : 5126,
            "count" : 2178,
            "type" : "VEC4"
        },
        {
            "bufferView" : 3,
            "componentType" : 5126,
            "count" : 2178,
            "type" : "VEC2"
        },
        {
            "bufferView" : 4,
            "componentType" : 5126,
            "count" : 2178,
            "type" : "VEC2"
        },
        {
            "bufferView" : 5,
            "componentType" : 5123,
            "count" : 2373,
            "type" : "SCALAR"
        }
    ],
    "bufferViews" : [
        {
            "buffer" : 0,
            "byteLength" : 26136,
            "byteOffset" : 0
        },
        {
            "buffer" : 0,
            "byteLength" : 26136,
            "byteOffset" : 26136
        },
        {
            "buffer" : 0,
            "byteLength" : 34848,
            "byteOffset" : 52272
        },
        {
            "buffer" : 0,
            "byteLength" : 17424,
            "byteOffset" : 87120
        },
        {
            "buffer" : 0,
            "byteLength" : 17424,
            "byteOffset" : 104544
        },
        {
            "buffer" : 0,
            "byteLength" : 4746,
            "byteOffset" : 121968
        },
        {
            "buffer" : 0,
            "byteLength" : 13061,
            "byteOffset" : 126716
        }
    ],
    "samplers" : [
        {
            "magFilter" : 9729,
            "minFilter" : 9987
        }
    ],
    "buffers" : [
        {
            "byteLength" : 139780,
            "uri" : "data:application/octet-stream;base64,"
        }
    ]
}
