{
    "asset" : {
        "generator" : "Khronos glTF Blender I/O v1.6.16",
        "version" : "2.0"
    },
    "scene" : 0,
    "scenes" : [
        {
            "name" : "Scene",
            "nodes" : [
                0
            ]
        }
    ],
    "nodes" : [
        {
            "mesh" : 0,
            "name" : "SM_Prop_ShopSign_01",
            "rotation" : [
                0.7071068286895752,
                0,
                0,
                0.7071067094802856
            ],
            "scale" : [
                0.009999999776482582,
                0.009999999776482582,
                0.009999999776482582
            ]
        }
    ],
    "materials" : [
        {
            "doubleSided" : true,
            "name" : "lambert3.001",
            "pbrMetallicRoughness" : {
                "metallicFactor" : 0,
                "roughnessFactor" : 0.5527864098548889
            }
        }
    ],
    "meshes" : [
        {
            "name" : "Mesh.306",
            "primitives" : [
                {
                    "attributes" : {
                        "POSITION" : 0,
                        "NORMAL" : 1,
                        "TANGENT" : 2,
                        "TEXCOORD_0" : 3,
                        "TEXCOORD_1" : 4
                    },
                    "indices" : 5,
                    "material" : 0
                }
            ]
        }
    ],
    "accessors" : [
        {
            "bufferView" : 0,
            "componentType" : 5126,
            "count" : 1517,
            "max" : [
                189.87464904785156,
                9.016168594360352,
                80.59491729736328
            ],
            "min" : [
                0,
                -9.016168594360352,
                -6.895214080810547
            ],
            "type" : "VEC3"
        },
        {
            "bufferView" : 1,
            "componentType" : 5126,
            "count" : 1517,
            "type" : "VEC3"
        },
        {
            "bufferView" : 2,
            "componentType" : 5126,
            "count" : 1517,
            "type" : "VEC4"
        },
        {
            "bufferView" : 3,
            "componentType" : 5126,
            "count" : 1517,
            "type" : "VEC2"
        },
        {
            "bufferView" : 4,
            "componentType" : 5126,
            "count" : 1517,
            "type" : "VEC2"
        },
        {
            "bufferView" : 5,
            "componentType" : 5123,
            "count" : 2244,
            "type" : "SCALAR"
        }
    ],
    "bufferViews" : [
        {
            "buffer" : 0,
            "byteLength" : 18204,
            "byteOffset" : 0
        },
        {
            "buffer" : 0,
            "byteLength" : 18204,
            "byteOffset" : 18204
        },
        {
            "buffer" : 0,
            "byteLength" : 24272,
            "byteOffset" : 36408
        },
        {
            "buffer" : 0,
            "byteLength" : 12136,
            "byteOffset" : 60680
        },
        {
            "buffer" : 0,
            "byteLength" : 12136,
            "byteOffset" : 72816
        },
        {
            "buffer" : 0,
            "byteLength" : 4488,
            "byteOffset" : 84952
        }
    ],
    "buffers" : [
        {
            "byteLength" : 89440,
            "uri" : "data:application/octet-stream;base64,"
        }
    ]
}
